<svg width="23" height="23" viewBox="0 0 23 23" fill="none" xmlns="http://www.w3.org/2000/svg">
<path fill-rule="evenodd" clip-rule="evenodd" d="M17.8868 14.6764C14.7842 14.6764 14.7842 14.911 14.7842 17.7789V17.8071C14.7842 19.0561 14.7842 19.9586 15.09 20.34C15.3889 20.71 16.2768 20.8815 17.8868 20.8815C19.4967 20.8815 20.3846 20.7089 20.6836 20.3388C20.9894 19.9586 20.9894 19.0561 20.9894 17.806C20.9894 14.911 20.9894 14.6764 17.8868 14.6764ZM17.8868 22.5739C15.9846 22.5739 14.5575 22.3742 13.7734 21.4006C13.0919 20.5556 13.0919 19.4026 13.0919 17.8073L13.9381 17.7791H13.0919C13.0919 14.5411 13.2961 12.9842 17.8868 12.9842C22.4775 12.9842 22.6817 14.5411 22.6817 17.7791C22.6817 19.4014 22.6817 20.5556 22.0002 21.4006C21.2161 22.3742 19.7889 22.5739 17.8868 22.5739Z" fill="#9E9E9E"/>
<path fill-rule="evenodd" clip-rule="evenodd" d="M5.47654 14.6764C2.37397 14.6764 2.37397 14.911 2.37397 17.7789V17.8071C2.37397 19.0561 2.37397 19.9586 2.67972 20.34C2.97869 20.71 3.86659 20.8815 5.47654 20.8815C7.08649 20.8815 7.97438 20.7089 8.27336 20.3388C8.5791 19.9586 8.5791 19.0561 8.5791 17.806C8.5791 14.911 8.5791 14.6764 5.47654 14.6764ZM5.47654 22.5739C3.57439 22.5739 2.14721 22.3742 1.36311 21.4006C0.681671 20.5556 0.681671 19.4026 0.681671 17.8073L1.52782 17.7791H0.681671C0.681671 14.5411 0.885877 12.9842 5.47654 12.9842C10.0672 12.9842 10.2714 14.5411 10.2714 17.7791C10.2714 19.4014 10.2714 20.5556 9.58998 21.4006C8.80588 22.3742 7.3787 22.5739 5.47654 22.5739Z" fill="#9E9E9E"/>
<path fill-rule="evenodd" clip-rule="evenodd" d="M17.8868 2.26619C14.7842 2.26619 14.7842 2.50086 14.7842 5.36876V5.39696C14.7842 6.64588 14.7842 7.54845 15.09 7.92978C15.3889 8.29983 16.2768 8.47132 17.8868 8.47132C19.4967 8.47132 20.3846 8.29871 20.6836 7.92865C20.9894 7.54845 20.9894 6.64588 20.9894 5.39583C20.9894 2.50086 20.9894 2.26619 17.8868 2.26619ZM17.8868 10.1637C15.9846 10.1637 14.5575 9.96397 13.7734 8.99032C13.0919 8.1453 13.0919 6.99227 13.0919 5.39699L13.9381 5.36879H13.0919C13.0919 2.13084 13.2961 0.573914 17.8868 0.573914C22.4775 0.573914 22.6817 2.13084 22.6817 5.36879C22.6817 6.99114 22.6817 8.1453 22.0002 8.99032C21.2161 9.96397 19.7889 10.1637 17.8868 10.1637Z" fill="#9E9E9E"/>
<path fill-rule="evenodd" clip-rule="evenodd" d="M5.47654 2.26619C2.37397 2.26619 2.37397 2.50086 2.37397 5.36876V5.39696C2.37397 6.64588 2.37397 7.54845 2.67972 7.92978C2.97869 8.29983 3.86659 8.47132 5.47654 8.47132C7.08649 8.47132 7.97438 8.29871 8.27336 7.92865C8.5791 7.54845 8.5791 6.64588 8.5791 5.39583C8.5791 2.50086 8.5791 2.26619 5.47654 2.26619ZM5.47654 10.1637C3.57439 10.1637 2.14721 9.96397 1.36311 8.99032C0.681671 8.1453 0.681671 6.99227 0.681671 5.39699L1.52782 5.36879H0.681671C0.681671 2.13084 0.885877 0.573914 5.47654 0.573914C10.0672 0.573914 10.2714 2.13084 10.2714 5.36879C10.2714 6.99114 10.2714 8.1453 9.58998 8.99032C8.80588 9.96397 7.3787 10.1637 5.47654 10.1637Z" fill="#9E9E9E"/>
</svg>
