<svg width="25" height="26" viewBox="0 0 25 26" fill="none" xmlns="http://www.w3.org/2000/svg">
<path fill-rule="evenodd" clip-rule="evenodd" d="M12.5213 2.69826C6.72424 2.69826 2.00817 7.41433 2.00817 13.2114C2.00817 19.0085 6.72424 23.7245 12.5213 23.7245C18.3184 23.7245 23.0344 19.0085 23.0344 13.2114C23.0344 7.41433 18.3184 2.69826 12.5213 2.69826ZM12.5213 25.5797C5.70137 25.5797 0.152908 20.0313 0.152908 13.2113C0.152908 6.39142 5.70137 0.842957 12.5213 0.842957C19.3412 0.842957 24.8897 6.39142 24.8897 13.2113C24.8897 20.0313 19.3412 25.5797 12.5213 25.5797Z" fill="#9E9E9E"/>
<path fill-rule="evenodd" clip-rule="evenodd" d="M16.7651 17.7784C16.6031 17.7784 16.4398 17.7363 16.2902 17.6485L11.6273 14.8669C11.3478 14.6986 11.1746 14.3956 11.1746 14.0691V8.07289C11.1746 7.56084 11.5902 7.14526 12.1023 7.14526C12.6155 7.14526 13.0299 7.56084 13.0299 8.07289V13.5422L17.2413 16.053C17.6804 16.3164 17.8251 16.8854 17.5629 17.3257C17.3885 17.6163 17.0805 17.7784 16.7651 17.7784Z" fill="#9E9E9E"/>
</svg>
