<svg width="25" height="25" viewBox="0 0 25 25" fill="none" xmlns="http://www.w3.org/2000/svg">
<path fill-rule="evenodd" clip-rule="evenodd" d="M1.64911 8.73503C0.889686 9.4185 0.456053 10.3921 0.456053 11.4139V20.6208C0.456053 22.6113 2.06963 24.2248 4.06006 24.2248H20.8787C22.8692 24.2248 24.4827 22.6113 24.4827 20.6208V11.4139C24.4827 10.3921 24.0491 9.4185 23.2897 8.73503L14.8804 1.16662C13.5098 -0.066935 11.429 -0.066935 10.0584 1.16663L1.64911 8.73503ZM11.2681 13.4128C9.94111 13.4128 8.86539 14.4885 8.86539 15.8155V20.6208C8.86539 21.2843 9.40326 21.8221 10.0667 21.8221H14.8721C15.5356 21.8221 16.0734 21.2843 16.0734 20.6208V15.8155C16.0734 14.4885 14.9977 13.4128 13.6707 13.4128H11.2681Z" fill="white"/>
</svg>
