<svg width="25" height="28" viewBox="0 0 25 28" fill="none" xmlns="http://www.w3.org/2000/svg">
<path fill-rule="evenodd" clip-rule="evenodd" d="M12.0521 2.61818C9.70717 2.61818 7.80623 4.51912 7.80623 6.86405C7.80623 9.20899 9.70717 11.1099 12.0521 11.1099C14.397 11.1099 16.298 9.20899 16.298 6.86405C16.298 4.51912 14.397 2.61818 12.0521 2.61818ZM6.00494 6.86405C6.00494 3.5243 8.71235 0.816895 12.0521 0.816895C15.3919 0.816895 18.0993 3.5243 18.0993 6.86405C18.0993 10.2038 15.3919 12.9112 12.0521 12.9112C8.71235 12.9112 6.00494 10.2038 6.00494 6.86405Z" fill="#9E9E9E"/>
<path fill-rule="evenodd" clip-rule="evenodd" d="M2.81752 20.7288C4.68754 18.7309 7.72885 17.2271 12.3957 17.2271C17.0626 17.2271 20.1039 18.7309 21.9739 20.7288C23.8203 22.7015 24.4471 25.0743 24.4471 26.7052C24.4471 27.2026 24.0439 27.6059 23.5465 27.6059H1.24491C0.747499 27.6059 0.344269 27.2026 0.344269 26.7052C0.344269 25.0743 0.971062 22.7015 2.81752 20.7288ZM2.22214 25.8046H22.5693C22.3818 24.6485 21.8276 23.2084 20.6588 21.9597C19.1836 20.3836 16.6495 19.0283 12.3957 19.0283C8.14192 19.0283 5.60783 20.3836 4.13261 21.9597C2.96384 23.2084 2.40957 24.6485 2.22214 25.8046Z" fill="#9E9E9E"/>
</svg>
